<?xml version="1.0" encoding="UTF-8"?>
<svg width="13px" height="27px" viewBox="0 0 13 27" version="1.1" xmlns="http://www.w3.org/2000/svg" xmlns:xlink="http://www.w3.org/1999/xlink">
    <!-- Generator: Sketch 48.2 (47327) - http://www.bohemiancoding.com/sketch -->
    <title>Group 5</title>
    <desc>Created with Sketch.</desc>
    <defs></defs>
    <g id="Desktop-HD-Copy" stroke="none" stroke-width="1" fill="none" fill-rule="evenodd" transform="translate(-714.000000, -955.000000)">
        <g id="Group-5" transform="translate(714.000000, 955.000000)" fill="#4A4A4A">
            <rect id="Rectangle-8" x="6" y="0" width="1" height="19"></rect>
            <path d="M7.24416793,19.3320307 L12.6619141,25.367829 C13.0308284,25.7788286 12.9967114,26.4110738 12.5857117,26.779988 C12.4022082,26.9447011 12.1643179,27.0358073 11.9177334,27.0358073 L1.08224101,27.0358073 C0.52995626,27.0358073 0.0822410096,26.588092 0.0822410096,26.0358073 C0.0822410096,25.7892227 0.173347154,25.5513324 0.338060273,25.367829 L5.75580646,19.3320307 C6.1247207,18.921031 6.75696584,18.8869141 7.16796551,19.2558283 C7.19471753,19.279841 7.22015526,19.3052787 7.24416793,19.3320307 Z" id="Triangle" transform="translate(6.499992, 23.017904) scale(1, -1) translate(-6.499992, -23.017904) "></path>
        </g>
    </g>
</svg>